<svg fill="none" xmlns="http://www.w3.org/2000/svg" viewBox="0 0 200 200">
  <path fill-rule="evenodd" clip-rule="evenodd" d="m100.5 56 33.34 19.25v38.5L100.5 133l-33.34-19.25v-38.5L100.5 56ZM76.11 79H76v31h15V96.3L76.11 79ZM125 79h-.11L110 96.3V110h15V79Z" fill="#000"/>
  <path fill-rule="evenodd" clip-rule="evenodd" d="M80 93v15h8v-4.45L80 93ZM121 93v15h-8v-4.45L121 93Z" fill="#000"/>
  <path d="m80.84 146.14-3.31-9.96a.62.62 0 0 1 .08-.59c.13-.18.3-.27.53-.27h.57c.27 0 .51.09.74.26.22.16.37.36.43.62l2.45 8.6h.03l2.48-8.62c.07-.25.22-.46.43-.62.23-.16.47-.24.74-.24h.51c.22 0 .4.1.53.27.13.18.15.38.08.6l-3.31 9.95c-.09.25-.24.46-.47.62a1.2 1.2 0 0 1-.73.24h-.58c-.27 0-.51-.08-.74-.24a1.36 1.36 0 0 1-.46-.62Zm9.98-6.13c-.54 0-.96.15-1.26.46-.29.3-.47.79-.54 1.46 0 .08.04.13.12.13h3.14c.09 0 .13-.05.13-.13-.04-1.28-.57-1.92-1.59-1.92Zm.4 7.15c-1.4 0-2.47-.36-3.23-1.09-.74-.73-1.12-1.81-1.12-3.23 0-1.4.34-2.48 1.01-3.22.67-.73 1.64-1.1 2.91-1.1 2.37 0 3.59 1.34 3.65 4.03a.77.77 0 0 1-.27.64.98.98 0 0 1-.67.26h-4.37c-.1 0-.14.05-.11.14.07.72.3 1.24.7 1.57.4.32 1 .48 1.76.48.48 0 1.01-.08 1.6-.24.2-.05.37-.02.53.1.17.11.25.27.25.48 0 .24-.07.46-.22.65a.88.88 0 0 1-.56.34c-.6.13-1.22.19-1.86.19Zm4.8-.16a.48.48 0 0 1-.45-.26.47.47 0 0 1 .01-.5l2.05-3.37a.18.18 0 0 0 0-.22l-1.97-3.2a.47.47 0 0 1-.01-.51c.1-.18.24-.26.45-.26h.5c.29 0 .54.07.78.22.24.14.43.34.56.58l1.08 2.1.02.01.02-.01 1.08-2.1c.13-.24.31-.44.55-.58.23-.15.5-.22.78-.22h.45c.2 0 .35.08.45.26.1.17.09.34-.02.5l-1.97 3.2a.18.18 0 0 0 0 .23l2.05 3.36c.1.17.11.34.02.51a.48.48 0 0 1-.45.26h-.51c-.29 0-.55-.07-.79-.2a1.53 1.53 0 0 1-.54-.6l-1.17-2.24-.01-.02c-.01 0-.02 0-.02.02l-1.17 2.24a1.5 1.5 0 0 1-1.33.8h-.44Zm10.61.16c-.94 0-1.62-.26-2.04-.77-.43-.52-.64-1.4-.64-2.64v-4.16c0-.24.09-.46.27-.64.18-.18.4-.27.64-.27h.25c.25 0 .46.1.64.27.19.18.28.4.28.64v3.94c0 .75.1 1.26.3 1.55.2.29.54.43 1.02.43.44 0 .85-.19 1.22-.56.38-.37.58-.77.58-1.2v-4.16c0-.24.09-.46.27-.64.18-.18.4-.27.64-.27h.32c.24 0 .45.1.62.27.18.18.27.4.27.64v6.5c0 .24-.09.46-.27.64a.83.83 0 0 1-.62.27h-.21a.92.92 0 0 1-.66-.26.99.99 0 0 1-.27-.65l-.01-.11c0-.01 0-.02-.02-.02a3.36 3.36 0 0 1-2.58 1.2Zm9.71-3.52a5.4 5.4 0 0 1-2.4-1c-.47-.43-.7-.99-.7-1.67 0-.77.28-1.37.85-1.8a4.17 4.17 0 0 1 2.54-.65c.7 0 1.4.06 2.1.2.23.03.42.15.56.34.15.19.22.4.22.64a.6.6 0 0 1-.78.6 7.78 7.78 0 0 0-1.9-.23c-.95 0-1.43.27-1.43.8 0 .26.09.47.27.64.18.17.5.3.93.4 1.23.25 2.06.58 2.51 1 .46.41.69 1.02.69 1.82a2.1 2.1 0 0 1-.86 1.79c-.58.43-1.42.64-2.52.64a9.8 9.8 0 0 1-2.19-.26.98.98 0 0 1-.58-.36c-.14-.2-.22-.44-.22-.7 0-.2.08-.35.24-.46.17-.1.35-.13.55-.08.69.2 1.34.3 1.96.3.97 0 1.46-.3 1.46-.87a.8.8 0 0 0-.29-.66c-.18-.16-.52-.3-1-.43Z" fill="#000"/>
  <circle cx="100" cy="100" r="59" stroke="#000" stroke-width="6"/>
</svg>
