<svg width="200" height="200" viewBox="0 0 200 200" fill="none" xmlns="http://www.w3.org/2000/svg">
<path fill-rule="evenodd" clip-rule="evenodd" d="M156 100C156 130.928 130.928 156 100 156C69.0721 156 44 130.928 44 100C44 69.0721 69.0721 44 100 44C130.928 44 156 69.0721 156 100ZM162 100C162 134.242 134.242 162 100 162C65.7583 162 38 134.242 38 100C38 65.7583 65.7583 38 100 38C134.242 38 162 65.7583 162 100ZM100.5 56L133.842 75.25V113.75L100.5 133L67.158 113.75V75.25L100.5 56ZM76.1113 79H76V110H91V96.3004L76.1113 79ZM125 79H124.889L110 96.3004V110H125V79ZM80 93V108H88V103.545L80 93ZM121 108V93L113 103.545V108H121ZM80.84 146.136L77.528 136.184C77.4533 135.971 77.48 135.773 77.608 135.592C77.736 135.411 77.912 135.32 78.136 135.32H78.712C78.9787 135.32 79.224 135.405 79.448 135.576C79.672 135.736 79.816 135.944 79.88 136.2L82.328 144.792C82.328 144.797 82.329 144.8 82.331 144.803C82.3327 144.805 82.3352 144.807 82.3385 144.807C82.3401 144.808 82.342 144.808 82.344 144.808C82.3547 144.808 82.36 144.803 82.36 144.792L84.84 136.184C84.9147 135.928 85.0587 135.72 85.272 135.56C85.496 135.4 85.7413 135.32 86.008 135.32H86.52C86.744 135.32 86.92 135.411 87.048 135.592C87.176 135.773 87.2027 135.971 87.128 136.184L83.816 146.136C83.7307 146.392 83.576 146.6 83.352 146.76C83.1387 146.92 82.8933 147 82.616 147H82.04C81.7733 147 81.528 146.92 81.304 146.76C81.0907 146.6 80.936 146.392 80.84 146.136ZM90.8241 140.008C90.2801 140.008 89.8588 140.163 89.5601 140.472C89.2721 140.771 89.0908 141.256 89.0161 141.928C89.0161 142.013 89.0588 142.056 89.1441 142.056H92.2801C92.3655 142.056 92.4081 142.013 92.4081 141.928C92.3655 140.648 91.8375 140.008 90.8241 140.008ZM91.2241 147.16C89.8268 147.16 88.7495 146.797 87.9921 146.072C87.2455 145.336 86.8721 144.259 86.8721 142.84C86.8721 141.432 87.2081 140.36 87.8801 139.624C88.5521 138.888 89.5228 138.52 90.7921 138.52C93.1601 138.52 94.3761 139.864 94.4401 142.552C94.4508 142.808 94.3601 143.021 94.1681 143.192C93.9761 143.363 93.7521 143.448 93.4961 143.448H89.1281C89.0321 143.448 88.9948 143.496 89.0161 143.592C89.0908 144.307 89.3255 144.829 89.7201 145.16C90.1255 145.48 90.7121 145.64 91.4801 145.64C91.9601 145.64 92.4935 145.56 93.0801 145.4C93.2721 145.347 93.4481 145.379 93.6081 145.496C93.7788 145.613 93.8641 145.773 93.8641 145.976C93.8641 146.221 93.7895 146.44 93.6401 146.632C93.5015 146.813 93.3148 146.925 93.0801 146.968C92.4828 147.096 91.8641 147.16 91.2241 147.16ZM96.0163 147C95.8136 147 95.6642 146.915 95.5682 146.744C95.4723 146.573 95.4776 146.403 95.5843 146.232L97.6323 142.872C97.6856 142.797 97.6856 142.723 97.6323 142.648L95.6642 139.448C95.5576 139.277 95.5522 139.107 95.6483 138.936C95.7443 138.765 95.8936 138.68 96.0962 138.68H96.6082C96.8856 138.68 97.1416 138.755 97.3763 138.904C97.6216 139.043 97.8083 139.235 97.9362 139.48L99.0243 141.576C99.0243 141.587 99.0296 141.592 99.0402 141.592C99.0509 141.592 99.0563 141.587 99.0563 141.576L100.144 139.48C100.272 139.235 100.454 139.043 100.688 138.904C100.923 138.755 101.184 138.68 101.472 138.68H101.92C102.123 138.68 102.272 138.765 102.368 138.936C102.464 139.107 102.459 139.277 102.352 139.448L100.384 142.648C100.331 142.723 100.331 142.797 100.384 142.872L102.432 146.232C102.539 146.403 102.544 146.573 102.448 146.744C102.352 146.915 102.203 147 102 147H101.488C101.2 147 100.939 146.931 100.704 146.792C100.47 146.643 100.288 146.445 100.16 146.2L98.9922 143.96C98.9922 143.949 98.9869 143.944 98.9762 143.944C98.9656 143.944 98.9603 143.949 98.9603 143.96L97.7923 146.2C97.6642 146.445 97.4776 146.643 97.2323 146.792C96.9976 146.931 96.7416 147 96.4642 147H96.0163ZM106.634 147.16C105.695 147.16 105.013 146.904 104.586 146.392C104.159 145.869 103.946 144.989 103.946 143.752V139.592C103.946 139.347 104.037 139.133 104.218 138.952C104.399 138.771 104.613 138.68 104.858 138.68H105.114C105.359 138.68 105.573 138.771 105.754 138.952C105.935 139.133 106.026 139.347 106.026 139.592V143.528C106.026 144.275 106.127 144.792 106.33 145.08C106.533 145.368 106.874 145.512 107.354 145.512C107.791 145.512 108.197 145.325 108.57 144.952C108.954 144.579 109.146 144.179 109.146 143.752V139.592C109.146 139.347 109.237 139.133 109.418 138.952C109.599 138.771 109.813 138.68 110.058 138.68H110.378C110.623 138.68 110.831 138.771 111.002 138.952C111.183 139.133 111.274 139.347 111.274 139.592V146.088C111.274 146.333 111.183 146.547 111.002 146.728C110.831 146.909 110.623 147 110.378 147H110.17C109.914 147 109.695 146.915 109.514 146.744C109.343 146.563 109.253 146.344 109.242 146.088L109.226 145.976C109.226 145.965 109.221 145.96 109.21 145.96C109.199 145.96 109.189 145.965 109.178 145.976C108.453 146.765 107.605 147.16 106.634 147.16ZM116.343 143.64C115.223 143.395 114.423 143.059 113.943 142.632C113.474 142.205 113.239 141.651 113.239 140.968C113.239 140.2 113.522 139.603 114.087 139.176C114.663 138.739 115.511 138.52 116.631 138.52C117.335 138.52 118.034 138.584 118.727 138.712C118.962 138.755 119.148 138.872 119.287 139.064C119.436 139.245 119.511 139.459 119.511 139.704C119.511 139.907 119.431 140.072 119.271 140.2C119.111 140.317 118.93 140.349 118.727 140.296C118.13 140.147 117.5 140.072 116.839 140.072C115.879 140.072 115.399 140.339 115.399 140.872C115.399 141.128 115.49 141.341 115.671 141.512C115.852 141.683 116.162 141.816 116.599 141.912C117.826 142.157 118.663 142.488 119.111 142.904C119.57 143.32 119.799 143.928 119.799 144.728C119.799 145.496 119.511 146.093 118.935 146.52C118.359 146.947 117.522 147.16 116.423 147.16C115.708 147.16 114.978 147.075 114.231 146.904C113.996 146.851 113.804 146.728 113.655 146.536C113.506 146.333 113.431 146.104 113.431 145.848C113.431 145.645 113.511 145.491 113.671 145.384C113.842 145.277 114.023 145.251 114.215 145.304C114.908 145.496 115.564 145.592 116.183 145.592C117.154 145.592 117.639 145.304 117.639 144.728C117.639 144.451 117.543 144.232 117.351 144.072C117.17 143.912 116.834 143.768 116.343 143.64Z" fill="black"/>
</svg>
